<mxfile host="app.diagrams.net" modified="2022-07-13T09:23:40.546Z" agent="5.0 (Windows NT 10.0; Win64; x64) AppleWebKit/537.36 (KHTML, like Gecko) Chrome/103.0.0.0 Safari/537.36" etag="cQDCDMQyi6im30GwGRjl" version="20.1.1" type="github">
  <diagram id="LE4c7SaQOkgi2_fTezmZ" name="Page-1">
    <mxGraphModel dx="665" dy="346" grid="1" gridSize="10" guides="1" tooltips="1" connect="1" arrows="1" fold="1" page="1" pageScale="1" pageWidth="827" pageHeight="1169" math="0" shadow="0">
      <root>
        <mxCell id="0" />
        <mxCell id="1" parent="0" />
        <mxCell id="enxGzovfLy_JIHNYhwGa-1" value="" style="rounded=0;whiteSpace=wrap;html=1;fillColor=#dae8fc;strokeColor=#6c8ebf;" vertex="1" parent="1">
          <mxGeometry x="307" y="305" width="90" height="40" as="geometry" />
        </mxCell>
        <mxCell id="enxGzovfLy_JIHNYhwGa-4" value="算法模型" style="rounded=0;whiteSpace=wrap;html=1;fillColor=#dae8fc;strokeColor=#6c8ebf;" vertex="1" parent="1">
          <mxGeometry x="210" y="355" width="90" height="30" as="geometry" />
        </mxCell>
        <mxCell id="enxGzovfLy_JIHNYhwGa-9" value="深度学习算法" style="rounded=0;whiteSpace=wrap;html=1;fillColor=#d5e8d4;strokeColor=#82b366;" vertex="1" parent="1">
          <mxGeometry x="210" y="503.75" width="90" height="32.5" as="geometry" />
        </mxCell>
        <mxCell id="enxGzovfLy_JIHNYhwGa-10" value="数据分析" style="rounded=0;whiteSpace=wrap;html=1;fillColor=#ffe6cc;strokeColor=#d79b00;" vertex="1" parent="1">
          <mxGeometry x="210" y="565.5" width="90" height="30" as="geometry" />
        </mxCell>
        <mxCell id="enxGzovfLy_JIHNYhwGa-11" value="" style="rounded=0;whiteSpace=wrap;html=1;rotation=-90;fillColor=#fa6800;fontColor=#000000;strokeColor=#C73500;" vertex="1" parent="1">
          <mxGeometry x="105" y="605" width="140" height="50" as="geometry" />
        </mxCell>
        <mxCell id="enxGzovfLy_JIHNYhwGa-13" value="AI芯片" style="rounded=0;whiteSpace=wrap;html=1;fillColor=#ffe6cc;strokeColor=#d79b00;" vertex="1" parent="1">
          <mxGeometry x="210" y="660.5" width="90" height="30" as="geometry" />
        </mxCell>
        <mxCell id="enxGzovfLy_JIHNYhwGa-14" value="" style="rounded=0;whiteSpace=wrap;html=1;rotation=90;fillColor=#1ba1e2;fontColor=#ffffff;strokeColor=#006EAF;" vertex="1" parent="1">
          <mxGeometry x="105" y="300" width="140" height="50" as="geometry" />
        </mxCell>
        <mxCell id="enxGzovfLy_JIHNYhwGa-15" value="&lt;font color=&quot;#ffffff&quot;&gt;应用层&lt;/font&gt;" style="text;html=1;strokeColor=none;fillColor=none;align=center;verticalAlign=middle;whiteSpace=wrap;rounded=0;fontSize=17;fontColor=#3333FF;" vertex="1" parent="1">
          <mxGeometry x="165" y="290" width="20" height="80" as="geometry" />
        </mxCell>
        <mxCell id="enxGzovfLy_JIHNYhwGa-17" value="" style="rounded=0;whiteSpace=wrap;html=1;rotation=90;fillColor=#008a00;fontColor=#ffffff;strokeColor=#005700;" vertex="1" parent="1">
          <mxGeometry x="105" y="450" width="140" height="50" as="geometry" />
        </mxCell>
        <mxCell id="enxGzovfLy_JIHNYhwGa-18" value="&lt;span style=&quot;color: rgb(255, 255, 255);&quot;&gt;算法技术层&lt;/span&gt;" style="text;html=1;strokeColor=none;fillColor=none;align=center;verticalAlign=middle;whiteSpace=wrap;rounded=0;fontSize=17;fontColor=#3333FF;" vertex="1" parent="1">
          <mxGeometry x="165" y="430" width="20" height="80" as="geometry" />
        </mxCell>
        <mxCell id="enxGzovfLy_JIHNYhwGa-19" value="&lt;font color=&quot;#ffffff&quot;&gt;基层层&lt;/font&gt;" style="text;html=1;strokeColor=none;fillColor=none;align=center;verticalAlign=middle;whiteSpace=wrap;rounded=0;fontSize=17;fontColor=#3333FF;" vertex="1" parent="1">
          <mxGeometry x="165" y="588" width="20" height="80" as="geometry" />
        </mxCell>
        <mxCell id="enxGzovfLy_JIHNYhwGa-20" value="" style="endArrow=none;dashed=1;html=1;dashPattern=1 3;strokeWidth=2;rounded=0;fontSize=17;fontColor=#FFFFFF;fillColor=#d5e8d4;strokeColor=#82b366;" edge="1" parent="1">
          <mxGeometry width="50" height="50" relative="1" as="geometry">
            <mxPoint x="150" y="550" as="sourcePoint" />
            <mxPoint x="620" y="550" as="targetPoint" />
          </mxGeometry>
        </mxCell>
        <mxCell id="enxGzovfLy_JIHNYhwGa-21" value="" style="endArrow=none;dashed=1;html=1;dashPattern=1 3;strokeWidth=2;rounded=0;fontSize=17;fontColor=#FFFFFF;fillColor=#d5e8d4;strokeColor=#82b366;" edge="1" parent="1">
          <mxGeometry width="50" height="50" relative="1" as="geometry">
            <mxPoint x="150" y="400" as="sourcePoint" />
            <mxPoint x="610" y="400" as="targetPoint" />
          </mxGeometry>
        </mxCell>
        <mxCell id="enxGzovfLy_JIHNYhwGa-22" value="" style="rounded=0;whiteSpace=wrap;html=1;fillColor=#dae8fc;strokeColor=#6c8ebf;" vertex="1" parent="1">
          <mxGeometry x="307" y="350" width="90" height="40" as="geometry" />
        </mxCell>
        <mxCell id="enxGzovfLy_JIHNYhwGa-23" value="算法部署" style="rounded=0;whiteSpace=wrap;html=1;fillColor=#dae8fc;strokeColor=#6c8ebf;" vertex="1" parent="1">
          <mxGeometry x="210" y="265" width="90" height="30" as="geometry" />
        </mxCell>
        <mxCell id="enxGzovfLy_JIHNYhwGa-24" value="" style="rounded=0;whiteSpace=wrap;html=1;fillColor=#dae8fc;strokeColor=#6c8ebf;" vertex="1" parent="1">
          <mxGeometry x="307" y="260" width="90" height="40" as="geometry" />
        </mxCell>
        <mxCell id="enxGzovfLy_JIHNYhwGa-28" value="" style="rounded=0;whiteSpace=wrap;html=1;fillColor=#dae8fc;strokeColor=#6c8ebf;" vertex="1" parent="1">
          <mxGeometry x="507" y="305" width="90" height="40" as="geometry" />
        </mxCell>
        <mxCell id="enxGzovfLy_JIHNYhwGa-29" value="" style="rounded=0;whiteSpace=wrap;html=1;fillColor=#dae8fc;strokeColor=#6c8ebf;" vertex="1" parent="1">
          <mxGeometry x="407" y="305" width="90" height="40" as="geometry" />
        </mxCell>
        <mxCell id="enxGzovfLy_JIHNYhwGa-30" value="" style="rounded=0;whiteSpace=wrap;html=1;fillColor=#dae8fc;strokeColor=#6c8ebf;" vertex="1" parent="1">
          <mxGeometry x="407" y="350" width="90" height="40" as="geometry" />
        </mxCell>
        <mxCell id="enxGzovfLy_JIHNYhwGa-31" value="" style="rounded=0;whiteSpace=wrap;html=1;fillColor=#dae8fc;strokeColor=#6c8ebf;" vertex="1" parent="1">
          <mxGeometry x="507" y="350" width="90" height="40" as="geometry" />
        </mxCell>
        <mxCell id="enxGzovfLy_JIHNYhwGa-32" value="" style="rounded=0;whiteSpace=wrap;html=1;fillColor=#dae8fc;strokeColor=#6c8ebf;" vertex="1" parent="1">
          <mxGeometry x="407" y="260" width="90" height="40" as="geometry" />
        </mxCell>
        <mxCell id="enxGzovfLy_JIHNYhwGa-33" value="" style="rounded=0;whiteSpace=wrap;html=1;fillColor=#dae8fc;strokeColor=#6c8ebf;" vertex="1" parent="1">
          <mxGeometry x="507" y="260" width="90" height="40" as="geometry" />
        </mxCell>
        <mxCell id="enxGzovfLy_JIHNYhwGa-34" value="人工智能技术" style="rounded=0;whiteSpace=wrap;html=1;fillColor=#d5e8d4;strokeColor=#82b366;" vertex="1" parent="1">
          <mxGeometry x="310" y="410" width="90" height="40" as="geometry" />
        </mxCell>
        <mxCell id="enxGzovfLy_JIHNYhwGa-35" value="Pytorch" style="rounded=0;whiteSpace=wrap;html=1;fillColor=#d5e8d4;strokeColor=#82b366;" vertex="1" parent="1">
          <mxGeometry x="310" y="455" width="90" height="40" as="geometry" />
        </mxCell>
        <mxCell id="enxGzovfLy_JIHNYhwGa-36" value="卷积神经网络" style="rounded=0;whiteSpace=wrap;html=1;fillColor=#d5e8d4;strokeColor=#82b366;" vertex="1" parent="1">
          <mxGeometry x="310" y="500" width="90" height="40" as="geometry" />
        </mxCell>
        <mxCell id="enxGzovfLy_JIHNYhwGa-37" value="人工智能技术" style="rounded=0;whiteSpace=wrap;html=1;fillColor=#d5e8d4;strokeColor=#82b366;" vertex="1" parent="1">
          <mxGeometry x="410" y="410" width="90" height="40" as="geometry" />
        </mxCell>
        <mxCell id="enxGzovfLy_JIHNYhwGa-38" value="PaddlePaddle" style="rounded=0;whiteSpace=wrap;html=1;fillColor=#d5e8d4;strokeColor=#82b366;" vertex="1" parent="1">
          <mxGeometry x="410" y="455" width="90" height="40" as="geometry" />
        </mxCell>
        <mxCell id="enxGzovfLy_JIHNYhwGa-39" value="递归神经网络" style="rounded=0;whiteSpace=wrap;html=1;fillColor=#d5e8d4;strokeColor=#82b366;" vertex="1" parent="1">
          <mxGeometry x="410" y="500" width="90" height="40" as="geometry" />
        </mxCell>
        <mxCell id="enxGzovfLy_JIHNYhwGa-40" value="人工智能技术" style="rounded=0;whiteSpace=wrap;html=1;fillColor=#d5e8d4;strokeColor=#82b366;" vertex="1" parent="1">
          <mxGeometry x="510" y="410" width="90" height="40" as="geometry" />
        </mxCell>
        <mxCell id="enxGzovfLy_JIHNYhwGa-41" value="OpenMMlab" style="rounded=0;whiteSpace=wrap;html=1;fillColor=#d5e8d4;strokeColor=#82b366;" vertex="1" parent="1">
          <mxGeometry x="510" y="455" width="90" height="40" as="geometry" />
        </mxCell>
        <mxCell id="enxGzovfLy_JIHNYhwGa-42" value="深度神经网络" style="rounded=0;whiteSpace=wrap;html=1;fillColor=#d5e8d4;strokeColor=#82b366;" vertex="1" parent="1">
          <mxGeometry x="510" y="500" width="90" height="40" as="geometry" />
        </mxCell>
        <mxCell id="enxGzovfLy_JIHNYhwGa-43" value="视频数据" style="rounded=0;whiteSpace=wrap;html=1;fillColor=#f0a30a;strokeColor=#BD7000;fontColor=#000000;" vertex="1" parent="1">
          <mxGeometry x="310" y="560.5" width="90" height="40" as="geometry" />
        </mxCell>
        <mxCell id="enxGzovfLy_JIHNYhwGa-44" value="通用服务器" style="rounded=0;whiteSpace=wrap;html=1;fillColor=#f0a30a;strokeColor=#BD7000;fontColor=#000000;" vertex="1" parent="1">
          <mxGeometry x="310" y="608.5" width="90" height="40" as="geometry" />
        </mxCell>
        <mxCell id="enxGzovfLy_JIHNYhwGa-45" value="NPU" style="rounded=0;whiteSpace=wrap;html=1;fillColor=#f0a30a;strokeColor=#BD7000;fontColor=#000000;" vertex="1" parent="1">
          <mxGeometry x="310" y="655.5" width="90" height="40" as="geometry" />
        </mxCell>
        <mxCell id="enxGzovfLy_JIHNYhwGa-46" value="数据特征" style="rounded=0;whiteSpace=wrap;html=1;fillColor=#f0a30a;strokeColor=#BD7000;fontColor=#000000;" vertex="1" parent="1">
          <mxGeometry x="410" y="560.5" width="90" height="40" as="geometry" />
        </mxCell>
        <mxCell id="enxGzovfLy_JIHNYhwGa-47" value="AI服务器" style="rounded=0;whiteSpace=wrap;html=1;fillColor=#f0a30a;strokeColor=#BD7000;fontColor=#000000;" vertex="1" parent="1">
          <mxGeometry x="410" y="608" width="90" height="40" as="geometry" />
        </mxCell>
        <mxCell id="enxGzovfLy_JIHNYhwGa-48" value="GPU" style="rounded=0;whiteSpace=wrap;html=1;fillColor=#f0a30a;strokeColor=#BD7000;fontColor=#000000;" vertex="1" parent="1">
          <mxGeometry x="410" y="655" width="90" height="40" as="geometry" />
        </mxCell>
        <mxCell id="enxGzovfLy_JIHNYhwGa-49" value="数据结构化" style="rounded=0;whiteSpace=wrap;html=1;fillColor=#f0a30a;strokeColor=#BD7000;fontColor=#000000;" vertex="1" parent="1">
          <mxGeometry x="510" y="560" width="90" height="40" as="geometry" />
        </mxCell>
        <mxCell id="enxGzovfLy_JIHNYhwGa-50" value="移动终端" style="rounded=0;whiteSpace=wrap;html=1;fillColor=#f0a30a;strokeColor=#BD7000;fontColor=#000000;" vertex="1" parent="1">
          <mxGeometry x="510" y="608" width="90" height="40" as="geometry" />
        </mxCell>
        <mxCell id="enxGzovfLy_JIHNYhwGa-51" value="国产芯片" style="rounded=0;whiteSpace=wrap;html=1;fillColor=#f0a30a;strokeColor=#BD7000;fontColor=#000000;" vertex="1" parent="1">
          <mxGeometry x="510" y="655" width="90" height="40" as="geometry" />
        </mxCell>
        <mxCell id="enxGzovfLy_JIHNYhwGa-52" value="算法测试" style="rounded=0;whiteSpace=wrap;html=1;fillColor=#dae8fc;strokeColor=#6c8ebf;" vertex="1" parent="1">
          <mxGeometry x="210" y="310" width="90" height="30" as="geometry" />
        </mxCell>
        <mxCell id="enxGzovfLy_JIHNYhwGa-53" value="AI基础设施" style="rounded=0;whiteSpace=wrap;html=1;fillColor=#ffe6cc;strokeColor=#d79b00;" vertex="1" parent="1">
          <mxGeometry x="210" y="613" width="90" height="30" as="geometry" />
        </mxCell>
        <mxCell id="enxGzovfLy_JIHNYhwGa-55" value="AI训练框架" style="rounded=0;whiteSpace=wrap;html=1;fillColor=#d5e8d4;strokeColor=#82b366;" vertex="1" parent="1">
          <mxGeometry x="210" y="462.5" width="90" height="32.5" as="geometry" />
        </mxCell>
        <mxCell id="enxGzovfLy_JIHNYhwGa-56" value="人工智能算法" style="rounded=0;whiteSpace=wrap;html=1;fillColor=#d5e8d4;strokeColor=#82b366;" vertex="1" parent="1">
          <mxGeometry x="210" y="417.5" width="90" height="32.5" as="geometry" />
        </mxCell>
      </root>
    </mxGraphModel>
  </diagram>
</mxfile>
